<?xml version="1.0" standalone="no"?>
<!DOCTYPE svg PUBLIC "-//W3C//DTD SVG 20010904//EN"
 "http://www.w3.org/TR/2001/REC-SVG-20010904/DTD/svg10.dtd">
<svg version="1.0" xmlns="http://www.w3.org/2000/svg"
 width="260.000000pt" height="260.000000pt" viewBox="0 0 260.000000 260.000000"
 preserveAspectRatio="xMidYMid meet">
<metadata>
Created by potrace 1.11, written by Peter Selinger 2001-2013
</metadata>
<g transform="translate(0.000000,260.000000) scale(0.100000,-0.100000)"
fill="#000000" stroke="none">
<path d="M1170 2594 c-14 -2 -56 -9 -95 -15 -65 -10 -203 -49 -250 -69 -11 -4
-35 -14 -52 -22 -18 -7 -33 -17 -33 -21 0 -5 -4 -6 -8 -3 -5 3 -20 -2 -33 -12
-13 -9 -31 -18 -39 -19 -8 -1 -19 -8 -25 -15 -5 -7 -16 -14 -24 -16 -25 -5
-159 -113 -230 -183 -46 -46 -99 -108 -121 -141 -14 -21 -28 -38 -32 -38 -5 0
-8 -7 -8 -15 0 -8 -4 -15 -8 -15 -14 0 -119 -220 -146 -305 -87 -274 -86 -558
4 -825 27 -81 100 -230 112 -230 5 0 7 -4 4 -9 -6 -8 31 -63 46 -69 5 -2 8
-10 8 -18 0 -8 5 -14 10 -14 6 0 9 -3 8 -8 -4 -10 11 -27 117 -136 87 -89 215
-196 215 -179 0 4 5 0 11 -10 6 -9 14 -15 20 -12 5 4 9 2 9 -3 0 -5 33 -25 72
-44 299 -146 609 -183 906 -107 89 22 265 88 270 101 2 4 7 6 12 3 5 -3 15 1
22 9 8 7 24 17 36 20 12 4 22 12 22 17 0 5 5 9 11 9 10 0 76 43 128 85 74 59
213 208 249 268 9 15 20 27 24 27 4 0 8 5 8 10 0 6 12 29 27 53 14 23 25 43
24 45 -1 1 5 10 14 18 8 9 13 20 10 25 -4 5 -1 9 4 9 6 0 11 5 11 11 0 6 7 27
16 47 9 21 20 46 25 57 21 49 59 222 70 321 25 240 -29 516 -147 739 -20 39
-40 72 -43 75 -3 3 -26 34 -51 70 -24 36 -83 104 -130 151 -85 85 -210 188
-210 172 0 -4 -5 0 -11 10 -6 9 -14 15 -20 12 -5 -4 -9 -2 -9 3 0 5 -37 27
-82 49 -195 96 -337 132 -548 138 -80 2 -156 2 -170 -1z m359 -394 c45 -45 89
-100 109 -138 18 -34 30 -62 26 -62 -3 0 0 -7 7 -16 14 -17 19 -172 6 -229 -3
-16 -9 -43 -12 -60 -3 -16 -8 -38 -11 -47 -3 -9 -6 -25 -8 -35 -2 -10 -16 -54
-31 -98 -15 -44 -29 -88 -31 -99 -2 -10 -8 -23 -13 -30 -5 -6 -10 -14 -10 -18
-2 -11 -11 -37 -27 -82 -8 -21 -13 -41 -10 -44 3 -2 1 -13 -5 -24 -15 -28 -37
-152 -45 -253 -4 -50 -11 -93 -16 -96 -5 -3 14 -5 41 -4 28 1 54 5 58 9 4 3 8
30 10 59 3 54 10 150 12 155 1 1 1 4 2 7 0 2 5 19 10 37 6 18 13 44 16 58 8
37 9 43 17 62 4 9 8 22 10 30 1 7 6 20 11 28 5 8 10 17 10 20 3 18 49 100 56
100 5 0 9 5 9 10 0 14 14 31 70 88 42 42 117 85 172 99 41 10 173 10 186 0 6
-5 12 -7 12 -3 0 3 22 -5 49 -18 51 -27 141 -111 141 -133 0 -7 5 -13 10 -13
6 0 10 -8 10 -18 0 -10 5 -23 12 -30 9 -9 9 -12 -2 -12 -13 -1 -12 -2 0 -10
11 -6 16 -23 15 -54 0 -25 2 -46 6 -46 3 0 6 -7 6 -15 0 -10 -6 -14 -15 -10
-11 4 -12 2 -4 -7 9 -12 9 -36 -2 -83 -2 -11 -5 -26 -5 -33 -1 -7 -5 -10 -11
-7 -6 3 -7 -1 -4 -9 3 -9 2 -16 -3 -16 -5 0 -15 -16 -21 -35 -12 -32 -79 -107
-133 -149 -34 -26 -110 -60 -136 -61 -12 0 -25 -4 -29 -8 -19 -19 -31 -4 -32
40 -1 68 -5 80 -37 116 -16 18 -29 34 -28 37 1 3 -20 5 -45 5 -26 0 -55 3 -64
8 -11 5 -18 4 -18 -3 0 -5 -8 -10 -18 -10 -42 0 -117 -85 -129 -144 -2 -11 -8
-24 -13 -31 -6 -7 -1 -10 18 -9 33 1 73 -16 66 -27 -3 -5 -2 -9 3 -9 4 0 9
-16 10 -36 2 -34 -16 -67 -39 -70 -4 -1 -11 -3 -15 -4 -5 -1 -15 -3 -23 -4 -9
0 -14 -9 -12 -21 2 -11 4 -26 4 -33 1 -7 12 -24 25 -39 17 -18 21 -29 14 -36
-8 -8 -11 -6 -11 6 0 9 -5 17 -10 17 -13 0 4 -35 22 -46 6 -4 9 -3 6 2 -10 16
16 30 42 23 14 -4 22 -8 18 -9 -15 -5 -28 -8 -40 -9 -8 -1 -6 -6 5 -12 12 -7
15 -15 9 -27 -5 -9 -7 -27 -6 -40 1 -13 -4 -21 -10 -19 -6 2 -11 10 -12 18 -2
30 -5 37 -24 59 -18 21 -20 21 -37 5 -16 -17 -16 -17 4 -11 24 8 48 -16 40
-39 -4 -8 1 -21 9 -30 9 -8 11 -15 5 -15 -13 0 -15 -37 -2 -44 10 -7 24 22 16
34 -3 4 2 10 10 14 8 3 17 1 20 -4 4 -6 1 -10 -5 -10 -7 0 -10 -5 -8 -11 2 -6
8 -9 13 -7 6 2 9 7 7 12 -2 5 4 6 13 2 9 -3 14 -2 11 3 -3 5 1 11 9 15 8 3 17
1 20 -4 4 -6 2 -10 -2 -10 -5 0 -20 -10 -33 -23 -19 -18 -35 -23 -63 -21 -47
4 -80 21 -74 38 3 7 1 19 -5 27 -8 11 -9 11 -4 -3 3 -10 0 -20 -6 -24 -6 -4
-8 -3 -5 3 4 6 0 14 -9 17 -9 4 -14 9 -11 12 3 3 -3 20 -13 37 l-19 31 27 13
c15 7 19 11 8 8 -10 -3 -25 0 -32 6 -14 12 -10 29 7 29 6 0 7 -4 4 -10 -3 -5
-1 -10 4 -10 20 0 11 22 -10 27 -14 4 -19 12 -16 24 3 11 2 19 -2 19 -4 0 -7
9 -7 20 0 11 3 20 7 20 4 0 10 7 13 16 5 13 4 14 -7 6 -8 -7 -17 -9 -21 -5 -4
4 -25 8 -47 9 l-39 1 0 -48 c0 -45 -1 -47 -25 -44 -32 3 -52 -27 -30 -45 8 -6
22 -10 32 -7 15 4 15 5 -2 6 -12 1 -21 8 -22 19 -1 12 5 18 18 17 22 -2 39
-15 18 -15 -10 0 -11 -2 -2 -8 13 -8 25 -112 12 -112 -14 0 -21 21 -11 33 7 9
-3 21 -37 45 l-46 33 40 -35 c50 -44 42 -56 -9 -14 -29 24 -35 26 -25 10 8
-12 17 -22 22 -22 4 0 5 -5 2 -11 -4 -6 0 -9 10 -7 10 2 20 -2 22 -7 2 -6 -11
-10 -29 -9 -52 2 -54 3 -54 23 0 11 4 17 8 15 4 -3 7 3 6 13 -3 38 2 64 12 58
6 -3 10 -1 10 4 0 6 -5 11 -11 11 -5 0 -7 5 -4 10 4 6 9 22 11 36 7 36 7 36 5
59 -1 15 -3 17 -10 7 -4 -8 -11 -13 -15 -13 -27 4 -34 -3 -41 -41 -4 -24 -7
-47 -6 -52 1 -5 -4 -6 -12 -3 -7 3 -14 -1 -14 -8 0 -7 6 -11 13 -8 11 4 11 -1
2 -28 -14 -44 -18 -48 -18 -18 -1 76 -4 98 -13 92 -5 -3 -7 0 -5 8 3 8 11 13
17 11 7 -1 10 2 6 8 -3 6 -11 8 -17 4 -6 -4 -8 3 -6 17 3 21 -1 24 -29 24 -33
0 -33 0 -30 -47 1 -27 6 -48 10 -48 5 0 7 -6 4 -14 -3 -8 -3 -17 0 -20 4 -3 7
-16 9 -29 1 -12 4 -32 7 -45 6 -24 -10 -31 -19 -8 -3 9 -16 13 -32 11 -38 -4
-39 -4 -22 -15 9 -5 19 -5 27 2 17 13 17 -4 1 -20 -17 -17 5 -32 34 -24 15 4
17 7 6 14 -10 8 -10 9 2 5 8 -2 16 -11 18 -20 2 -12 -1 -15 -12 -11 -9 4 -18
0 -22 -10 -5 -14 -8 -14 -21 -1 -8 9 -19 12 -25 9 -6 -4 -8 1 -3 15 4 14 2 21
-6 21 -7 0 -9 -3 -6 -7 4 -3 2 -12 -4 -20 -9 -9 -8 -13 0 -13 6 0 11 -5 11
-11 0 -5 -6 -7 -12 -3 -10 5 -10 4 -1 -6 10 -11 9 -16 -5 -27 -9 -7 -12 -13
-7 -12 24 3 27 -2 9 -16 -16 -13 -16 -14 -1 -9 10 4 17 1 17 -7 0 -7 -3 -9 -7
-6 -10 11 -32 -13 -26 -29 3 -8 0 -14 -6 -14 -6 0 -11 -5 -11 -12 0 -9 3 -9
11 -1 6 6 17 9 24 7 6 -3 18 3 26 13 13 16 12 17 -4 4 -9 -8 -20 -11 -24 -8
-7 8 17 38 26 33 4 -3 7 4 7 14 0 10 -5 16 -10 13 -5 -3 -6 -1 -2 5 11 18 49
-5 42 -24 -3 -8 -2 -13 3 -10 5 3 15 -1 22 -10 10 -13 10 -17 -2 -25 -8 -5
-12 -9 -9 -10 3 0 13 -2 22 -4 12 -2 16 3 14 19 -1 12 -5 26 -7 31 -9 17 -4
55 6 53 6 -2 10 -15 9 -30 0 -16 4 -28 10 -28 6 0 4 -5 -4 -10 -10 -6 -11 -10
-2 -10 6 0 11 -6 10 -12 -4 -16 34 -18 44 -3 11 14 10 25 -3 25 -5 0 -7 -5 -4
-10 3 -6 2 -10 -3 -10 -6 0 -9 11 -8 24 0 13 4 22 8 20 4 -3 7 4 6 13 0 10 3
36 7 58 4 22 7 46 8 53 0 6 7 12 14 12 9 0 11 -5 6 -12 -11 -19 -13 -39 -2
-32 5 3 9 0 9 -6 0 -7 -7 -10 -17 -6 -15 5 -15 4 1 -9 17 -13 15 -19 -5 -17
-3 1 -6 -5 -6 -13 0 -7 7 -11 16 -8 12 3 12 1 -3 -11 -10 -8 -15 -20 -11 -26
5 -8 11 -8 19 -1 7 6 16 8 19 4 4 -3 7 -1 7 5 0 7 -5 12 -12 12 -15 0 -1 13
17 16 18 3 18 -4 2 -32 -7 -12 -21 -20 -32 -19 -13 1 -21 -5 -21 -15 0 -9 6
-17 13 -17 7 0 10 3 8 7 -2 4 2 7 10 7 8 0 11 -5 8 -10 -3 -6 -1 -7 6 -3 6 4
9 12 6 17 -4 5 -1 10 4 10 6 1 16 3 21 4 6 1 12 3 15 4 3 0 1 11 -5 24 -11 21
-10 21 4 3 9 -11 16 -25 16 -30 1 -6 9 -1 19 12 11 12 22 18 24 12 3 -6 4 -5
3 2 -2 7 -10 12 -17 11 -9 -2 -15 6 -16 18 -2 17 1 18 13 9 19 -17 18 -3 -2
17 -13 13 -13 17 -2 24 13 9 13 9 -24 13 -6 0 -13 6 -15 13 -3 8 3 11 16 8 29
-5 42 -15 40 -28 -2 -7 3 -32 10 -57 7 -25 12 -47 11 -49 -1 -2 3 -7 10 -11 6
-4 12 -16 13 -28 0 -12 7 -24 15 -27 7 -3 11 -9 8 -14 -3 -4 3 -16 14 -26 20
-18 28 -41 11 -31 -5 4 -12 0 -15 -6 -3 -7 -3 -3 0 9 4 17 1 21 -13 18 -10 -2
-20 -4 -23 -4 -3 -1 1 -5 9 -10 9 -6 10 -11 2 -15 -6 -4 -11 -2 -11 3 0 6 -5
11 -11 11 -5 0 -7 -4 -4 -10 6 -10 2 -12 -37 -13 -13 -1 -27 -6 -31 -11 -5 -7
-7 -4 -3 7 3 11 2 16 -4 12 -6 -3 -10 -1 -10 4 0 6 6 11 14 11 22 0 27 15 11
36 -14 18 -14 18 -10 -4 2 -12 0 -20 -4 -17 -12 7 -22 -21 -15 -39 3 -8 1 -17
-5 -21 -7 -4 -8 1 -4 12 6 16 4 16 -18 -2 l-24 -20 19 23 c11 12 16 25 13 29
-4 4 -13 -2 -21 -12 -16 -23 -45 -28 -65 -12 -12 10 -14 9 -9 -4 4 -9 1 -16
-7 -16 -8 0 -11 7 -7 16 5 14 3 14 -11 2 -11 -9 -17 -10 -17 -2 0 6 5 11 10
11 19 0 10 16 -9 17 -16 1 -19 -4 -15 -25 3 -21 2 -24 -6 -12 -9 13 -11 13
-20 0 -7 -11 -10 -11 -10 -2 0 7 6 15 14 18 8 3 13 12 12 19 -4 27 -13 25 -26
-5 -13 -32 -30 -40 -30 -14 0 10 -5 12 -12 7 -20 -12 -41 -13 -55 -1 -10 8
-13 7 -13 -3 0 -11 -2 -11 -10 1 -5 8 -10 11 -10 6 0 -5 -7 -3 -15 4 -8 6 -20
8 -27 4 -10 -6 -11 -5 -1 8 7 8 10 17 7 21 -3 3 4 10 15 17 12 6 19 14 17 18
-3 5 0 14 6 22 8 12 9 12 4 -2 -3 -10 -2 -18 3 -18 15 0 20 13 11 31 -7 12 -6
22 3 31 8 7 13 21 11 31 -1 9 1 15 6 12 4 -3 8 10 9 28 1 60 2 67 9 67 4 0 8
26 9 58 2 88 2 92 14 92 5 0 7 -5 3 -12 -5 -7 -3 -8 6 -3 10 6 10 10 -2 19 -9
7 -14 25 -14 46 1 19 -4 41 -11 48 -11 11 -13 11 -14 0 0 -10 -2 -10 -6 1 -5
11 -7 11 -14 0 -6 -10 -9 -11 -9 -1 0 6 -5 12 -11 12 -5 0 -7 -4 -4 -10 3 -6
-1 -7 -9 -4 -9 3 -16 1 -16 -6 0 -6 -5 -8 -11 -4 -8 5 -8 1 0 -13 10 -20 6
-33 -10 -33 -5 0 -6 8 -3 18 5 14 4 14 -4 2 -6 -8 -9 -17 -6 -21 2 -4 -1 -9
-8 -11 -7 -3 -5 -7 6 -11 10 -4 15 -3 11 3 -3 6 1 10 10 10 10 0 13 -5 9 -12
-4 -6 -10 -25 -13 -41 -5 -22 -13 -31 -29 -32 -12 -1 -21 3 -19 9 2 6 11 10
20 10 15 -2 16 31 1 45 -4 3 -4 -2 -1 -12 5 -13 3 -17 -5 -14 -7 2 -12 15 -11
28 1 15 0 17 -3 6 -3 -9 -10 -15 -15 -12 -5 4 -5 15 2 28 6 12 7 18 3 12 -58
-65 -57 -64 -43 -81 13 -16 12 -16 -7 -6 -12 6 -24 8 -28 5 -3 -3 -6 1 -6 11
0 9 5 14 10 11 6 -3 10 -2 10 3 0 4 8 17 18 28 19 21 27 101 8 85 -17 -15 -72
13 -79 40 -13 53 17 123 38 89 3 -5 12 -10 18 -9 9 0 9 2 0 6 -17 6 -17 24 0
18 6 -3 18 -1 26 4 12 8 12 12 2 25 -10 12 -10 16 -2 16 8 0 7 6 -3 16 -9 8
-16 21 -16 28 0 7 -9 21 -20 31 -11 10 -18 20 -15 23 5 5 -49 33 -99 52 -19 7
-26 15 -22 26 3 9 2 12 -5 9 -5 -4 -7 -14 -4 -24 4 -14 -2 -16 -38 -16 -36 1
-47 -4 -79 -36 -20 -20 -41 -34 -45 -30 -4 3 -2 -1 4 -9 7 -9 9 -21 4 -28 -4
-6 -6 -31 -5 -55 1 -36 -1 -43 -17 -43 -24 0 -24 12 -1 25 9 6 13 11 8 11 -5
0 -17 -7 -26 -15 -17 -16 -50 -11 -50 7 0 6 7 7 16 4 8 -3 26 2 38 11 22 17
23 19 7 42 -15 23 -15 25 2 18 9 -3 17 -2 17 3 0 13 -27 13 -35 0 -4 -6 -1
-17 5 -25 9 -11 8 -18 -4 -31 -19 -19 -35 -11 -18 9 7 8 7 18 2 27 -7 11 -10
11 -11 3 -1 -7 -2 -18 -3 -24 0 -6 -9 -16 -18 -23 -10 -7 -14 -16 -10 -21 7
-7 -46 21 -87 46 -11 8 -21 20 -21 27 0 7 -4 10 -10 7 -12 -7 -86 70 -101 107
-6 15 -15 28 -20 28 -5 0 -9 11 -9 25 0 14 -4 25 -10 25 -6 0 -5 10 2 25 13
30 27 33 25 5 -1 -11 -6 -20 -11 -20 -6 0 -5 -5 1 -11 6 -6 9 -19 6 -28 -4
-13 -3 -13 5 -2 6 8 7 21 4 30 -5 14 -3 14 11 2 9 -7 17 -10 17 -5 1 5 10 -2
20 -15 16 -18 18 -27 9 -37 -6 -8 -16 -14 -21 -14 -6 0 -5 7 2 15 10 12 10 19
1 28 -16 16 -33 -10 -21 -34 5 -9 6 -20 2 -24 -4 -3 0 -5 8 -3 8 1 15 -4 15
-12 0 -8 9 -20 20 -27 11 -7 16 -12 11 -13 -5 0 -3 -7 4 -15 11 -14 14 -13 27
4 12 18 10 23 -12 45 -15 15 -23 31 -20 36 9 15 25 12 19 -3 -3 -8 2 -20 11
-27 10 -8 15 -9 15 -1 0 6 -4 11 -10 11 -5 0 -10 5 -10 11 0 5 4 7 10 4 6 -3
10 -1 10 4 0 6 -5 11 -11 11 -5 0 -7 5 -4 10 4 6 11 8 16 5 5 -4 9 -1 9 4 0
15 -13 14 -29 -1 -10 -11 -15 -9 -27 6 -16 22 -19 40 -5 32 11 -7 23 22 15 35
-3 6 -1 16 6 24 8 10 8 19 -2 34 -7 12 -17 21 -22 21 -6 0 -5 -5 2 -12 12 -12
-1 -38 -20 -38 -6 0 -5 7 2 15 7 9 8 15 2 15 -5 0 -13 -7 -16 -15 -5 -13 -10
-14 -27 -4 -12 6 -19 7 -15 1 3 -5 -1 -13 -10 -16 -12 -4 -15 -2 -10 9 3 8 0
15 -5 15 -7 0 -9 -11 -7 -25 3 -14 1 -25 -3 -25 -9 0 -10 4 -13 52 0 14 -4 29
-8 33 -3 4 -2 19 2 35 4 16 6 31 2 34 -3 3 2 6 12 6 9 0 15 -4 12 -8 -3 -5 4
-16 15 -26 12 -10 18 -20 15 -23 -3 -3 -12 2 -21 11 -23 22 -32 20 -11 -3 9
-10 14 -25 10 -35 -3 -9 -1 -16 6 -16 6 0 8 5 5 10 -3 5 -1 10 4 10 6 0 11 -4
11 -9 0 -5 8 -12 17 -15 15 -6 15 -4 -1 13 -16 18 -17 23 -5 38 8 9 10 14 4
12 -10 -6 -46 25 -44 38 0 4 -5 10 -13 13 -17 6 -22 30 -6 30 6 0 8 3 4 7 -3
4 4 13 16 21 13 7 15 11 6 8 -10 -3 -18 -1 -18 4 0 6 6 10 13 10 8 0 9 3 1 8
-8 5 -5 16 7 37 11 17 19 24 19 18 0 -7 4 -13 9 -13 5 0 7 8 4 19 -6 22 37 69
58 63 8 -3 11 -1 7 3 -12 13 15 34 30 23 9 -8 11 -7 6 7 -5 13 -4 16 4 11 7
-4 12 -3 12 1 0 16 62 34 77 21 10 -8 12 -8 8 4 -5 12 8 14 76 12 44 -1 86 -7
91 -12 6 -6 17 -8 24 -5 8 3 14 0 14 -7 0 -7 7 -10 15 -6 8 3 15 1 15 -4 0 -6
6 -10 13 -10 17 0 98 -68 127 -106 41 -55 60 -84 60 -94 0 -5 4 -10 10 -10 5
0 9 -3 8 -7 -1 -5 4 -19 12 -33 8 -14 15 -29 16 -35 1 -5 11 -37 22 -71 20
-57 29 -93 37 -139 2 -11 4 -20 5 -20 8 0 4 -63 -4 -74 -8 -11 -8 -13 2 -7 13
8 14 5 15 -70 0 -46 3 -52 28 -61 19 -7 31 -7 38 0 7 7 14 7 23 -1 10 -8 13
-1 12 36 -1 26 -3 47 -4 47 -8 0 -5 63 4 74 8 11 8 13 0 8 -8 -4 -15 19 -24
71 -13 79 -57 239 -85 304 -8 21 -15 40 -16 43 0 2 -11 34 -24 70 -13 36 -21
65 -19 65 2 0 -1 12 -7 28 -11 28 -17 50 -24 92 -2 14 -7 39 -11 55 -10 47
-11 167 -2 200 5 17 11 37 13 46 3 15 22 52 61 116 18 30 79 92 229 227 l59
54 70 -62 c38 -33 104 -95 145 -136z m-1161 -1004 c-13 -10 -14 -16 -6 -24 15
-15 6 -24 -27 -27 -26 -3 -38 8 -40 37 -1 14 4 17 26 13 16 -3 31 1 39 10 7 9
16 13 19 9 3 -3 -2 -11 -11 -18z m-38 -96 c0 -5 -5 -10 -11 -10 -5 0 -7 5 -4
10 3 6 8 10 11 10 2 0 4 -4 4 -10z m31 -24 c-9 -11 -6 -20 13 -43 14 -17 23
-33 19 -37 -9 -8 -23 -8 -22 2 3 19 -2 33 -10 28 -13 -9 -22 36 -9 51 6 7 13
13 15 13 3 0 0 -6 -6 -14z m633 -501 c-8 -12 -11 -25 -7 -29 4 -3 -4 -4 -18
-2 -13 2 -28 5 -32 5 -5 1 -6 5 -2 11 3 5 12 7 20 3 8 -3 15 -1 16 3 0 5 2 17
4 27 2 9 -1 15 -6 11 -5 -3 -6 -11 -3 -17 5 -9 3 -9 -6 0 -10 10 -11 15 -1 27
11 13 15 13 31 -1 16 -14 17 -19 4 -38z m-199 31 c18 -8 37 -11 41 -8 4 4 4 2
1 -5 -4 -6 -1 -13 5 -16 10 -4 11 -7 1 -18 -11 -11 -13 -10 -13 3 0 9 -5 20
-11 23 -6 4 -9 0 -7 -10 2 -10 -4 -20 -12 -22 -13 -4 -13 -3 0 6 11 8 12 11 2
11 -7 0 -11 4 -8 9 3 5 0 11 -7 14 -8 3 -14 -1 -14 -9 0 -8 4 -14 9 -14 5 0 6
-4 3 -10 -3 -5 -11 -10 -16 -10 -6 0 -7 5 -4 10 3 6 0 10 -7 10 -9 0 -9 3 2
10 13 9 13 10 0 11 -12 0 -12 2 -1 6 11 5 11 7 0 14 -21 13 -2 11 36 -5z
m1081 -14 c1 -12 -3 -22 -7 -22 -5 0 -9 -13 -9 -30 0 -19 -7 -33 -19 -40 -26
-14 -36 -13 -23 3 7 8 7 17 -2 28 -10 15 -14 15 -31 3 -13 -10 -15 -14 -4 -14
12 0 12 -2 -1 -11 -13 -9 -13 -10 0 -6 8 2 14 10 13 16 -4 14 14 15 22 1 3 -5
-3 -15 -15 -22 -11 -7 -20 -17 -20 -22 0 -4 7 -3 15 4 9 7 15 8 15 2 0 -15
-31 -24 -45 -12 -17 14 -10 59 12 76 24 18 40 18 47 -1 6 -17 26 -20 26 -4 0
5 -4 7 -10 4 -5 -3 -10 -2 -10 4 0 5 6 11 13 14 6 2 -1 4 -18 4 -16 1 -36 -4
-43 -10 -9 -7 -16 -6 -25 3 -9 9 -9 11 0 6 6 -3 18 3 26 14 7 11 23 21 35 23
12 2 25 6 29 10 12 13 28 1 29 -21z m-1008 -30 c-9 -11 -9 -14 -1 -9 6 4 14 3
18 -3 7 -11 5 -11 -40 -15 -16 -2 -31 -4 -32 -5 -2 -1 -7 -3 -12 -4 -5 0 -13
-5 -18 -10 -4 -5 -3 -6 3 -3 14 8 37 -17 26 -28 -4 -5 -2 -5 5 -1 8 4 11 0 8
-14 -2 -11 0 -18 5 -15 5 3 7 14 5 25 -2 11 0 20 4 20 15 0 20 -13 11 -30 -6
-12 -5 -17 6 -17 7 0 14 4 14 9 0 10 46 3 63 -9 24 -17 52 -9 51 14 -1 13 3
20 9 16 6 -4 7 -1 2 7 -5 9 -4 11 3 6 11 -6 14 0 11 20 0 4 5 11 13 15 9 6 10
9 1 9 -7 0 -20 -11 -29 -25 -12 -18 -20 -22 -29 -15 -6 5 -15 7 -19 3 -4 -4
-4 0 0 10 3 10 1 17 -6 17 -6 0 -9 -4 -6 -8 2 -4 1 -14 -3 -21 -6 -9 -11 -10
-15 -2 -4 6 -1 11 6 11 9 0 9 3 -2 10 -13 9 -13 10 0 10 9 1 6 6 -9 14 -25 14
-40 56 -20 56 5 0 7 -4 4 -10 -3 -5 -1 -10 5 -10 6 0 8 -5 4 -12 -5 -8 0 -7
11 2 17 14 18 13 12 -2 -6 -17 24 -44 36 -32 3 3 8 0 13 -7 5 -8 3 -10 -6 -4
-9 6 -11 4 -5 -5 6 -10 11 -9 21 5 7 10 11 22 8 26 -7 11 37 2 50 -11 7 -7 6
-10 -2 -10 -7 0 -12 -6 -12 -14 0 -8 -6 -21 -12 -28 -7 -7 -14 -20 -16 -28 -2
-8 -8 -17 -13 -18 -5 -2 -17 -11 -26 -20 -16 -16 -16 -16 -9 3 4 11 4 16 0 12
-4 -4 -13 -2 -21 5 -18 14 -31 1 -13 -15 10 -10 11 -9 5 3 -7 12 -6 13 6 2 11
-11 12 -14 0 -21 -18 -12 -72 -6 -81 9 -4 6 -10 11 -14 11 -4 -1 -18 12 -32
29 -14 16 -23 30 -19 30 4 0 2 6 -4 13 -6 8 -8 17 -4 20 3 4 0 7 -8 7 -11 0
-11 2 -1 9 8 4 28 7 46 6 23 -2 36 2 44 16 8 12 8 19 2 19 -5 0 -10 5 -10 11
0 8 5 8 15 -1 12 -10 13 -16 3 -28z m37 -39 c-4 -28 14 -44 35 -33 19 10 32 0
36 -26 3 -16 -34 -10 -57 9 -20 18 -34 22 -25 9 2 -4 -4 -8 -14 -8 -10 0 -17
3 -14 7 5 9 -21 31 -32 27 -5 -2 -10 1 -12 6 -1 5 14 10 34 12 19 1 38 5 41 8
10 9 11 7 8 -11z m319 -38 c-4 -8 -10 -12 -15 -9 -11 6 -2 24 11 24 5 0 7 -7
4 -15z m206 1 c0 -2 -10 -11 -22 -22 -21 -19 -21 -19 -14 1 6 16 5 17 -5 8 -8
-8 -9 -16 -2 -25 6 -7 9 -20 8 -29 -2 -9 3 -16 11 -16 10 0 11 4 3 13 -8 10
-6 12 10 11 16 -1 20 -6 16 -22 -5 -18 -5 -18 5 -2 13 20 4 41 -12 31 -7 -4
-8 -2 -4 4 5 8 1 10 -11 5 -14 -5 -16 -3 -6 7 9 10 15 10 26 2 8 -7 16 -10 19
-7 3 3 4 -12 3 -32 -1 -21 2 -44 8 -50 17 -22 -1 -14 -27 12 -14 14 -32 23
-44 20 -15 -3 -20 1 -19 16 1 10 5 19 11 19 5 0 1 9 -8 19 -16 17 -16 20 -2
28 15 8 56 15 56 9z m415 -6 c-3 -5 -11 -10 -16 -10 -6 0 -7 5 -4 10 3 6 11
10 16 10 6 0 7 -4 4 -10z m-631 -81 c-3 -5 0 -9 7 -9 6 0 9 8 6 19 -6 23 12
53 20 33 2 -6 9 -9 15 -6 5 4 2 -5 -7 -20 -10 -14 -13 -26 -9 -26 5 0 2 -5 -6
-10 -12 -8 -12 -10 -1 -10 8 0 11 -3 8 -7 -4 -3 -1 -13 5 -22 7 -9 -5 1 -25
22 -20 21 -41 36 -47 32 -5 -3 -10 -1 -10 5 0 7 8 9 21 5 19 -6 20 -5 8 8 -8
8 -17 13 -21 10 -4 -2 -5 4 -1 13 6 15 8 15 25 -6 10 -12 15 -26 12 -31z m209
-42 c3 -8 -1 -14 -8 -14 -7 0 -11 6 -8 14 3 7 6 13 8 13 2 0 5 -6 8 -13z"/>
<path d="M1289 1888 c0 -24 -2 -50 -4 -59 -1 -9 -6 -60 -10 -114 -4 -54 -8
-106 -10 -114 -1 -9 -6 -56 -9 -106 -4 -49 -11 -126 -16 -170 -13 -116 -20
-204 -19 -252 0 -35 -4 -43 -18 -44 -11 0 -13 -3 -5 -6 6 -2 12 -14 12 -24 0
-13 -4 -18 -12 -13 -7 5 -8 3 -2 -7 11 -19 14 -41 6 -53 -14 -23 -8 -47 12
-51 46 -9 55 -3 49 28 -5 24 -3 28 8 22 10 -6 11 -5 4 4 -7 7 -8 37 -3 88 11
96 15 161 17 232 2 87 18 47 26 -64 4 -55 9 -104 13 -109 3 -5 -1 -6 -9 -1
-11 7 -12 6 -2 -6 6 -8 13 -55 16 -104 l4 -90 32 -3 c20 -2 31 1 32 10 1 7 2
20 3 28 1 8 -2 20 -5 25 -4 6 -7 26 -7 45 -1 56 -10 169 -16 188 -3 9 -8 58
-12 107 -3 50 -8 97 -9 105 -1 8 -13 135 -26 283 -13 147 -27 267 -31 267 -5
0 -8 -19 -9 -42z"/>
<path d="M579 1608 c-5 -18 -6 -38 -1 -34 7 8 12 36 6 36 -2 0 -4 -1 -5 -2z"/>
<path d="M455 1570 c-4 -6 -12 -7 -18 -4 -7 4 -9 4 -5 -1 4 -4 2 -15 -4 -24
-10 -12 -7 -12 8 2 11 9 23 15 26 12 2 -3 5 2 5 10 0 18 -3 19 -12 5z"/>
<path d="M387 1539 c7 -7 15 -10 18 -7 3 3 -2 9 -12 12 -14 6 -15 5 -6 -5z"/>
<path d="M473 1525 c0 -8 4 -12 9 -9 5 3 6 10 3 15 -9 13 -12 11 -12 -6z"/>
<path d="M341 1514 c0 -11 3 -14 6 -6 3 7 2 16 -1 19 -3 4 -6 -2 -5 -13z"/>
<path d="M371 1514 c0 -11 3 -14 6 -6 3 7 2 16 -1 19 -3 4 -6 -2 -5 -13z"/>
<path d="M310 1500 c0 -5 5 -10 10 -10 6 0 10 5 10 10 0 6 -4 10 -10 10 -5 0
-10 -4 -10 -10z"/>
<path d="M493 1485 c0 -7 3 -14 6 -13 18 2 22 -3 14 -14 -5 -7 -18 -35 -28
-62 -12 -34 -20 -44 -26 -35 -7 12 -9 11 -9 -1 0 -13 -1 -13 -10 0 -5 8 -10
10 -10 4 0 -7 -11 -11 -24 -10 -13 0 -22 5 -18 10 3 5 0 6 -7 2 -7 -5 -10 -14
-7 -21 2 -7 0 -18 -5 -24 -6 -7 -5 -8 2 -2 12 10 39 4 39 -9 0 -4 -7 -7 -16
-6 -10 0 -18 -8 -20 -21 -5 -29 6 -35 31 -17 10 8 14 14 9 14 -6 0 -15 -5 -21
-11 -9 -9 -12 -7 -10 9 2 26 31 25 55 -2 9 -11 12 -16 5 -13 -8 5 -11 -3 -9
-28 2 -19 -1 -35 -6 -35 -5 0 -8 -6 -6 -12 2 -7 -2 -13 -7 -13 -6 0 -9 3 -8 8
2 4 -2 7 -7 7 -17 0 -11 -18 12 -34 12 -9 19 -19 15 -22 -4 -4 -12 -2 -20 4
-10 8 -16 6 -25 -9 -7 -10 -8 -19 -3 -19 5 0 11 5 13 11 3 9 9 9 24 1 11 -6
26 -7 33 -3 11 7 11 9 0 13 -10 4 -6 12 14 27 15 13 34 30 43 38 13 13 19 14
40 3 26 -14 30 -30 13 -47 -8 -8 -7 -13 2 -18 8 -6 10 -4 4 5 -6 10 -4 12 7 7
12 -4 14 -1 10 15 -4 17 -2 17 21 -6 29 -29 35 -30 57 -15 11 8 9 9 -10 3 -23
-6 -24 -6 -10 11 9 11 10 16 3 11 -7 -4 -13 -3 -13 1 0 5 6 15 13 22 8 10 8
12 0 7 -6 -3 -14 -2 -17 3 -4 5 2 12 11 14 15 4 15 5 2 6 -9 0 -19 12 -21 26
-6 31 1 38 21 22 14 -11 15 -10 1 7 -12 15 -12 20 -2 24 17 5 42 31 42 43 0 5
-8 10 -17 11 -10 0 -23 2 -30 2 -6 1 -15 5 -19 9 -4 4 -12 7 -18 7 -6 0 -4 -5
4 -10 11 -7 11 -10 2 -10 -13 0 -45 62 -45 88 0 6 -4 12 -8 12 -4 0 -11 9 -14
21 -4 11 -9 18 -12 15 -4 -3 -11 -1 -18 4 -8 7 -12 5 -12 -5z"/>
<path d="M335 1480 c-3 -5 -1 -10 4 -10 6 0 11 5 11 10 0 6 -2 10 -4 10 -3 0
-8 -4 -11 -10z"/>
<path d="M2061 1469 c-40 -104 -49 -118 -78 -117 -81 2 -81 2 -40 -40 35 -36
37 -40 31 -87 -3 -28 -10 -55 -15 -61 -6 -7 -3 -16 8 -25 11 -9 14 -10 9 -1
-7 11 5 17 27 13 5 -1 5 3 2 9 -4 7 2 14 13 17 11 3 23 11 26 19 6 15 42 19
48 6 2 -4 18 -18 36 -31 22 -15 31 -29 27 -39 -4 -12 -3 -13 9 -3 9 8 12 22 9
39 -3 15 -6 36 -7 47 -1 11 -5 26 -10 33 -8 14 7 36 54 79 l25 22 -25 2 c-14
1 -35 0 -47 -1 -26 -2 -52 20 -56 47 -1 10 -6 24 -10 30 -5 7 -10 23 -12 34
-6 32 -13 35 -24 8z"/>
<path d="M456 1467 c3 -10 9 -15 12 -12 3 3 0 11 -7 18 -10 9 -11 8 -5 -6z"/>
<path d="M355 1461 c-9 -15 15 -25 28 -12 9 9 7 10 -7 5 -13 -5 -17 -4 -12 4
4 7 5 12 2 12 -3 0 -7 -4 -11 -9z"/>
<path d="M275 1451 c-3 -5 0 -13 6 -17 7 -4 9 -3 5 4 -3 5 0 13 6 15 9 4 10 6
1 6 -6 1 -14 -3 -18 -8z"/>
<path d="M315 1450 c-3 -6 1 -7 9 -4 18 7 21 14 7 14 -6 0 -13 -4 -16 -10z"/>
<path d="M396 1435 c-9 -26 -7 -32 5 -12 6 10 9 21 6 23 -2 3 -7 -2 -11 -11z"/>
<path d="M299 1428 c0 -2 -2 -14 -5 -28 -3 -18 -2 -21 5 -10 5 8 7 18 4 24 -4
5 1 7 11 3 10 -4 15 -3 11 3 -5 9 -24 14 -26 8z"/>
<path d="M437 1417 c4 -6 -1 -8 -11 -4 -9 4 -15 3 -11 -2 3 -5 0 -11 -7 -13
-7 -3 -4 -7 7 -12 11 -4 16 -4 13 0 -4 3 2 14 14 24 17 13 18 17 5 17 -9 0
-13 -5 -10 -10z"/>
<path d="M654 1416 c1 -8 5 -18 8 -22 4 -3 5 1 4 10 -1 8 -5 18 -8 22 -4 3 -5
-1 -4 -10z"/>
<path d="M459 1393 c-13 -16 -12 -17 4 -4 9 7 17 15 17 17 0 8 -8 3 -21 -13z"/>
<path d="M590 1400 c0 -5 5 -10 11 -10 5 0 7 5 4 10 -3 6 -8 10 -11 10 -2 0
-4 -4 -4 -10z"/>
<path d="M315 1390 c-3 -6 1 -7 9 -4 18 7 21 14 7 14 -6 0 -13 -4 -16 -10z"/>
<path d="M261 1367 c-8 -12 -10 -19 -6 -15 5 4 13 0 20 -9 12 -16 40 -9 30 8
-4 5 3 9 14 9 12 0 20 -5 19 -11 -2 -6 4 -14 12 -16 12 -4 12 -3 2 5 -8 5 -14
13 -15 18 -1 5 -12 9 -25 9 -13 1 -27 6 -30 13 -5 7 -12 4 -21 -11z m29 -12
c7 -9 8 -15 2 -15 -5 0 -12 7 -16 15 -3 8 -4 15 -2 15 2 0 9 -7 16 -15z"/>
<path d="M350 1380 c0 -5 5 -10 10 -10 6 0 10 5 10 10 0 6 -4 10 -10 10 -5 0
-10 -4 -10 -10z"/>
<path d="M2273 1355 c0 -8 4 -12 9 -9 5 3 6 10 3 15 -9 13 -12 11 -12 -6z"/>
<path d="M2350 1340 c0 -5 5 -10 11 -10 5 0 7 5 4 10 -3 6 -8 10 -11 10 -2 0
-4 -4 -4 -10z"/>
<path d="M320 1320 c8 -5 20 -10 25 -10 6 0 3 5 -5 10 -8 5 -19 10 -25 10 -5
0 -3 -5 5 -10z"/>
<path d="M290 1318 c0 -2 9 -11 20 -21 11 -9 20 -13 20 -7 0 5 -9 14 -20 20
-11 6 -20 9 -20 8z"/>
<path d="M2274 1302 c4 -3 14 -7 22 -8 9 -1 13 0 10 4 -4 3 -14 7 -22 8 -9 1
-13 0 -10 -4z"/>
<path d="M345 1281 c-4 -12 -12 -18 -21 -14 -15 6 -20 -12 -4 -22 10 -6 46 42
37 51 -3 3 -8 -4 -12 -15z"/>
<path d="M2235 1281 c-3 -5 -2 -12 3 -15 5 -3 9 1 9 9 0 17 -3 19 -12 6z"/>
<path d="M235 1260 c3 -5 8 -10 11 -10 2 0 4 5 4 10 0 6 -5 10 -11 10 -5 0 -7
-4 -4 -10z"/>
<path d="M2315 1249 c-4 -6 -5 -12 -2 -15 2 -3 7 2 10 11 7 17 1 20 -8 4z"/>
<path d="M394 1238 c-4 -6 -3 -8 4 -4 5 3 13 0 15 -6 3 -8 6 -6 6 5 1 19 -14
23 -25 5z"/>
<path d="M770 1219 c0 -5 5 -7 10 -4 6 3 10 8 10 11 0 2 -4 4 -10 4 -5 0 -10
-5 -10 -11z"/>
<path d="M835 1179 c-3 -4 2 -6 10 -5 21 3 28 13 10 13 -9 0 -18 -4 -20 -8z"/>
<path d="M510 1169 c0 -5 -4 -7 -10 -4 -5 3 -10 4 -10 1 0 -3 9 -10 19 -15 16
-9 18 -8 14 9 -6 21 -13 27 -13 9z"/>
<path d="M853 1145 c0 -8 4 -12 9 -9 5 3 6 10 3 15 -9 13 -12 11 -12 -6z"/>
<path d="M470 1140 c0 -5 5 -10 10 -10 6 0 10 5 10 10 0 6 -4 10 -10 10 -5 0
-10 -4 -10 -10z"/>
<path d="M753 1127 c0 -8 6 -14 14 -14 9 0 10 4 2 14 -6 7 -12 13 -14 13 -1 0
-2 -6 -2 -13z"/>
<path d="M576 1122 c-3 -5 1 -9 9 -9 8 0 12 4 9 9 -3 4 -7 8 -9 8 -2 0 -6 -4
-9 -8z"/>
<path d="M680 1126 c0 -2 8 -10 18 -17 15 -13 16 -12 3 4 -13 16 -21 21 -21
13z"/>
<path d="M977 1115 c-4 -8 -3 -16 1 -19 4 -3 9 4 9 15 2 23 -3 25 -10 4z"/>
<path d="M2293 1115 c0 -8 4 -12 9 -9 4 3 8 9 8 15 0 5 -4 9 -8 9 -5 0 -9 -7
-9 -15z"/>
<path d="M460 1110 c-8 -5 -12 -11 -10 -14 3 -2 14 2 24 10 22 15 10 19 -14 4z"/>
<path d="M494 1098 c-7 -11 5 -28 19 -27 9 0 9 2 0 6 -7 2 -13 9 -13 14 0 6 4
8 8 5 4 -2 14 -1 22 4 11 7 9 9 -8 7 -13 -1 -26 -5 -28 -9z"/>
<path d="M430 1097 c0 -4 7 -19 16 -32 9 -14 12 -25 6 -25 -6 0 -15 8 -20 17
-8 13 -9 8 -8 -18 2 -22 -4 -43 -18 -59 -11 -14 -14 -19 -6 -12 17 14 34 16
25 2 -3 -6 1 -7 10 -4 24 10 45 54 25 54 -5 0 -9 -3 -9 -7 3 -18 -2 -33 -10
-33 -5 0 -8 11 -8 25 0 23 12 31 40 26 11 -2 9 2 -18 39 -14 19 -25 31 -25 27z"/>
<path d="M470 1085 c0 -5 5 -17 10 -25 5 -8 10 -10 10 -5 0 6 -5 17 -10 25 -5
8 -10 11 -10 5z"/>
<path d="M534 1073 c2 -9 8 -18 15 -19 6 -1 7 0 2 2 -6 3 -7 12 -4 20 3 8 1
14 -5 14 -6 0 -9 -8 -8 -17z"/>
<path d="M567 1079 c7 -7 15 -10 18 -7 3 3 -2 9 -12 12 -14 6 -15 5 -6 -5z"/>
<path d="M610 1080 c0 -5 5 -10 10 -10 6 0 10 5 10 10 0 6 -4 10 -10 10 -5 0
-10 -4 -10 -10z"/>
<path d="M645 1080 c-3 -6 1 -7 9 -4 18 7 21 14 7 14 -6 0 -13 -4 -16 -10z"/>
<path d="M684 1082 c4 -3 14 -7 22 -8 9 -1 13 0 10 4 -4 3 -14 7 -22 8 -9 1
-13 0 -10 -4z"/>
<path d="M740 1080 c-9 -6 -10 -10 -3 -10 6 0 15 5 18 10 8 12 4 12 -15 0z"/>
<path d="M913 1075 c0 -8 4 -12 9 -9 4 3 8 9 8 15 0 5 -4 9 -8 9 -5 0 -9 -7
-9 -15z"/>
<path d="M2050 1079 c0 -5 5 -7 10 -4 6 3 10 8 10 11 0 2 -4 4 -10 4 -5 0 -10
-5 -10 -11z"/>
<path d="M2290 1081 c0 -6 4 -13 10 -16 6 -3 7 1 4 9 -7 18 -14 21 -14 7z"/>
<path d="M2230 1066 c0 -2 7 -7 16 -10 8 -3 12 -2 9 4 -6 10 -25 14 -25 6z"/>
<path d="M502 1048 c-6 -6 -12 -16 -12 -22 0 -5 7 -1 16 10 14 17 15 17 10 1
-3 -10 -2 -16 3 -12 5 3 11 -1 14 -7 2 -7 7 -11 10 -8 3 3 -2 15 -11 28 -14
18 -20 20 -30 10z"/>
<path d="M2270 1057 c0 -2 6 -10 14 -16 11 -9 16 -9 22 1 4 7 4 10 -1 6 -4 -4
-14 -3 -22 3 -7 6 -13 9 -13 6z"/>
<path d="M2194 1035 c3 -23 12 -26 13 -5 1 11 -2 20 -7 20 -4 0 -7 -7 -6 -15z"/>
<path d="M558 1033 c7 -3 16 -2 19 1 4 3 -2 6 -13 5 -11 0 -14 -3 -6 -6z"/>
<path d="M620 1036 c0 -2 7 -7 16 -10 8 -3 12 -2 9 4 -6 10 -25 14 -25 6z"/>
<path d="M590 1020 c0 -5 5 -10 10 -10 6 0 10 5 10 10 0 6 -4 10 -10 10 -5 0
-10 -4 -10 -10z"/>
<path d="M2223 1017 c-3 -6 -1 -7 5 -3 5 3 12 1 14 -6 3 -8 6 -7 10 3 7 17
-19 22 -29 6z"/>
<path d="M470 980 c-7 -16 -17 -27 -23 -23 -6 4 -7 1 -2 -7 6 -10 4 -12 -9 -7
-10 4 -15 3 -11 -3 3 -6 12 -10 20 -10 7 0 15 -6 18 -14 4 -9 16 -13 32 -12
27 3 48 16 25 16 -7 0 2 14 19 31 18 17 30 33 28 36 -3 3 -20 -10 -37 -29 -18
-18 -30 -26 -27 -17 4 13 1 15 -14 12 -11 -3 -19 0 -19 6 0 7 4 10 8 7 4 -2 9
6 10 20 2 32 -3 30 -18 -6z m35 -61 c4 -6 0 -9 -11 -7 -19 3 -34 16 -34 31 0
10 37 -9 45 -24z"/>
<path d="M510 1000 c8 -5 20 -10 25 -10 6 0 3 5 -5 10 -8 5 -19 10 -25 10 -5
0 -3 -5 5 -10z"/>
<path d="M570 1000 c8 -5 20 -10 25 -10 6 0 3 5 -5 10 -8 5 -19 10 -25 10 -5
0 -3 -5 5 -10z"/>
<path d="M973 995 c0 -8 4 -12 9 -9 5 3 6 10 3 15 -9 13 -12 11 -12 -6z"/>
<path d="M2147 999 c7 -7 15 -10 18 -7 3 3 -2 9 -12 12 -14 6 -15 5 -6 -5z"/>
<path d="M500 980 c0 -6 7 -10 15 -10 8 0 15 2 15 4 0 2 -7 6 -15 10 -8 3 -15
1 -15 -4z"/>
<path d="M2215 969 c-4 -6 -5 -12 -2 -15 2 -3 7 2 10 11 7 17 1 20 -8 4z"/>
<path d="M1290 939 c0 -5 5 -7 10 -4 6 3 10 8 10 11 0 2 -4 4 -10 4 -5 0 -10
-5 -10 -11z"/>
<path d="M2089 923 c-13 -16 -12 -17 4 -4 16 13 21 21 13 21 -2 0 -10 -8 -17
-17z"/>
<path d="M2113 912 c-9 -15 -8 -19 3 -19 7 0 10 5 7 10 -4 7 1 8 12 3 15 -5
16 -4 5 9 -15 18 -13 19 -27 -3z"/>
<path d="M1033 905 c0 -8 4 -12 9 -9 5 3 6 10 3 15 -9 13 -12 11 -12 -6z"/>
<path d="M986 902 c-2 -4 4 -8 14 -8 10 0 16 4 14 8 -3 4 -9 8 -14 8 -5 0 -11
-4 -14 -8z"/>
<path d="M1576 873 c-6 -14 -5 -15 5 -6 7 7 10 15 7 18 -3 3 -9 -2 -12 -12z"/>
<path d="M993 853 c0 -9 4 -10 14 -2 7 6 13 12 13 14 0 1 -6 2 -13 2 -8 0 -14
-6 -14 -14z"/>
<path d="M962 844 c-7 -8 -8 -14 -3 -14 10 0 25 19 20 25 -2 1 -10 -3 -17 -11z"/>
<path d="M1235 850 c-4 -6 -10 -8 -15 -5 -4 3 -14 -3 -21 -13 -12 -15 -12 -16
2 -5 9 7 18 11 21 8 3 -3 11 1 18 10 7 8 10 15 7 15 -3 0 -9 -5 -12 -10z"/>
<path d="M1256 842 c-3 -5 1 -9 9 -9 8 0 12 4 9 9 -3 4 -7 8 -9 8 -2 0 -6 -4
-9 -8z"/>
<path d="M1670 836 c4 -4 16 -4 26 2 16 9 14 10 -8 9 -15 -1 -23 -6 -18 -11z"/>
<path d="M1635 831 c-3 -5 -2 -12 3 -15 5 -3 9 1 9 9 0 17 -3 19 -12 6z"/>
<path d="M1110 816 c7 -7 13 -7 20 0 6 6 3 10 -10 10 -13 0 -16 -4 -10 -10z"/>
<path d="M1155 822 c3 -3 0 -11 -7 -19 -6 -7 -9 -15 -7 -17 2 -2 12 6 21 18
13 18 14 23 2 23 -8 0 -12 -3 -9 -5z"/>
<path d="M1710 822 c0 -5 7 -9 15 -9 8 0 12 4 9 9 -3 4 -9 8 -15 8 -5 0 -9 -4
-9 -8z"/>
<path d="M940 813 c0 -6 8 -17 18 -24 16 -13 16 -13 2 6 -8 11 -16 22 -17 24
-2 2 -3 0 -3 -6z"/>
<path d="M1028 813 c7 -3 16 -2 19 1 4 3 -2 6 -13 5 -11 0 -14 -3 -6 -6z"/>
<path d="M910 799 c0 -5 5 -7 10 -4 6 3 10 8 10 11 0 2 -4 4 -10 4 -5 0 -10
-5 -10 -11z"/>
<path d="M980 800 c0 -5 5 -10 11 -10 5 0 7 5 4 10 -3 6 -8 10 -11 10 -2 0 -4
-4 -4 -10z"/>
<path d="M1067 791 c-3 -13 0 -18 7 -15 7 3 13 11 13 19 0 22 -14 18 -20 -4z"/>
<path d="M1179 793 c-13 -16 -12 -17 4 -4 9 7 17 15 17 17 0 8 -8 3 -21 -13z"/>
<path d="M1259 793 c-13 -17 -13 -17 6 -3 11 8 22 16 24 17 2 2 0 3 -6 3 -6 0
-17 -8 -24 -17z"/>
<path d="M1313 795 c0 -8 4 -12 9 -9 5 3 6 10 3 15 -9 13 -12 11 -12 -6z"/>
<path d="M1373 793 c0 -9 4 -10 14 -2 7 6 13 12 13 14 0 1 -6 2 -13 2 -8 0
-14 -6 -14 -14z"/>
<path d="M1564 803 c4 -4 16 -8 28 -10 28 -4 18 6 -12 12 -12 2 -20 1 -16 -2z"/>
<path d="M925 780 c-5 -8 -4 -11 2 -7 6 4 14 0 17 -9 4 -9 9 -14 13 -11 3 4
12 -1 20 -11 13 -15 13 -14 3 6 -7 13 -14 21 -17 18 -3 -3 -11 2 -18 11 -9 13
-14 13 -20 3z"/>
<path d="M1000 770 c-6 -11 -8 -20 -6 -20 3 0 10 9 16 20 6 11 8 20 6 20 -3 0
-10 -9 -16 -20z"/>
<path d="M1282 782 c-9 -6 -7 -13 10 -28 17 -14 19 -15 9 -2 -7 9 -10 22 -6
28 7 12 4 12 -13 2z"/>
<path d="M1430 776 c7 -7 13 -7 20 0 6 6 3 10 -10 10 -13 0 -16 -4 -10 -10z"/>
<path d="M1335 771 c-3 -5 -2 -12 3 -15 5 -3 9 1 9 9 0 17 -3 19 -12 6z"/>
<path d="M1395 770 c-4 -6 -10 -8 -15 -5 -5 3 -11 1 -14 -4 -8 -13 22 -7 36 7
7 7 9 12 6 12 -4 0 -10 -5 -13 -10z"/>
<path d="M1495 770 c-4 -6 -10 -8 -15 -5 -5 3 -11 1 -14 -4 -8 -13 22 -7 36 7
7 7 9 12 6 12 -4 0 -10 -5 -13 -10z"/>
<path d="M890 759 c0 -5 4 -8 9 -5 5 3 12 -1 15 -10 3 -8 10 -13 15 -10 5 4
12 1 14 -4 4 -7 5 -6 4 1 -2 6 -6 10 -11 9 -5 -1 -13 5 -18 14 -10 18 -28 21
-28 5z"/>
<path d="M1016 755 c-3 -9 1 -18 9 -21 8 -4 12 -11 8 -17 -3 -6 -1 -7 6 -3 6
4 8 12 5 18 -5 8 -1 9 10 5 10 -4 15 -3 11 4 -4 5 -15 7 -26 4 -14 -5 -17 -3
-13 9 3 9 4 16 1 16 -3 0 -8 -7 -11 -15z"/>
<path d="M1157 756 c-4 -11 -1 -13 10 -9 12 5 14 3 8 -7 -5 -9 -4 -11 4 -6 9
6 9 11 0 22 -14 17 -16 17 -22 0z"/>
<path d="M1233 750 c1 -21 10 -18 13 5 1 8 -2 15 -6 15 -5 0 -8 -9 -7 -20z"/>
<path d="M1670 758 c0 -6 3 -8 7 -5 3 4 13 1 22 -6 14 -11 14 -10 2 6 -15 20
-31 22 -31 5z"/>
<path d="M1077 749 c7 -7 15 -10 18 -7 3 3 -2 9 -12 12 -14 6 -15 5 -6 -5z"/>
<path d="M1554 746 c1 -8 5 -18 8 -22 4 -3 5 1 4 10 -1 8 -5 18 -8 22 -4 3 -5
-1 -4 -10z"/>
<path d="M1506 742 c-2 -4 4 -8 14 -8 10 0 16 4 14 8 -3 4 -9 8 -14 8 -5 0
-11 -4 -14 -8z"/>
<path d="M1445 730 c-16 -7 -17 -9 -3 -9 9 -1 20 4 23 9 7 11 7 11 -20 0z"/>
<path d="M991 721 c-11 -7 -9 -10 7 -15 14 -5 19 -13 16 -29 -4 -21 -4 -21 5
-2 6 14 5 23 -5 31 -7 6 -11 14 -7 17 9 10 1 8 -16 -2z"/>
<path d="M1185 719 c-4 -6 -5 -12 -2 -15 2 -3 7 2 10 11 7 17 1 20 -8 4z"/>
<path d="M1307 710 c-3 -11 -3 -20 -1 -20 2 0 8 9 14 20 6 11 7 20 2 20 -6 0
-12 -9 -15 -20z"/>
<path d="M1633 718 c3 -9 1 -19 -6 -22 -9 -3 -9 -5 0 -5 18 -1 23 13 11 29 -8
12 -9 12 -5 -2z"/>
<path d="M975 680 c-3 -6 1 -7 9 -4 18 7 21 14 7 14 -6 0 -13 -4 -16 -10z"/>
<path d="M1177 675 c-6 -15 10 -32 20 -21 4 3 1 6 -5 6 -6 0 -9 7 -6 15 4 8 4
15 1 15 -3 0 -7 -7 -10 -15z"/>
<path d="M1637 669 c7 -7 15 -10 18 -7 3 3 -2 9 -12 12 -14 6 -15 5 -6 -5z"/>
<path d="M1435 659 c-11 -16 -1 -19 13 -3 7 8 8 14 3 14 -5 0 -13 -5 -16 -11z"/>
<path d="M1587 652 c3 -7 9 -10 12 -5 3 4 10 11 15 15 4 4 -1 6 -12 5 -12 -1
-18 -6 -15 -15z"/>
<path d="M1390 640 c0 -5 5 -10 11 -10 5 0 7 5 4 10 -3 6 -8 10 -11 10 -2 0
-4 -4 -4 -10z"/>
<path d="M1610 646 c0 -2 7 -7 16 -10 8 -3 12 -2 9 4 -6 10 -25 14 -25 6z"/>
<path d="M1650 636 c0 -20 17 -29 26 -15 5 8 3 9 -6 4 -10 -6 -12 -4 -7 8 3
10 2 17 -3 17 -6 0 -10 -6 -10 -14z"/>
<path d="M1615 615 c11 -9 19 -19 17 -23 -2 -3 2 -8 10 -10 10 -3 10 -2 -1 6
-10 7 -10 11 -1 14 7 2 -1 9 -16 16 -27 12 -28 11 -9 -3z"/>
<path d="M1190 590 c0 -6 4 -9 9 -6 5 4 12 1 14 -4 3 -6 4 -5 3 2 -3 15 -26
23 -26 8z"/>
<path d="M1165 580 c-3 -5 -1 -10 4 -10 6 0 11 5 11 10 0 6 -2 10 -4 10 -3 0
-8 -4 -11 -10z"/>
<path d="M1195 561 c6 -11 4 -13 -9 -8 -9 4 -15 3 -12 -2 3 -5 17 -8 31 -8 14
0 25 0 23 1 -2 1 -12 8 -22 16 -17 13 -18 13 -11 1z"/>
<path d="M1620 539 c0 -5 5 -7 10 -4 6 3 10 8 10 11 0 2 -4 4 -10 4 -5 0 -10
-5 -10 -11z"/>
<path d="M1725 540 c3 -5 8 -10 11 -10 2 0 4 5 4 10 0 6 -5 10 -11 10 -5 0 -7
-4 -4 -10z"/>
<path d="M1370 520 c0 -5 5 -10 11 -10 5 0 7 5 4 10 -3 6 -8 10 -11 10 -2 0
-4 -4 -4 -10z"/>
<path d="M1646 515 c4 -8 1 -15 -5 -15 -6 0 -11 5 -11 11 0 5 -5 7 -11 3 -8
-5 -6 -10 5 -16 9 -5 21 -6 26 -3 13 8 13 35 0 35 -5 0 -7 -7 -4 -15z"/>
<path d="M1673 524 c3 -4 2 -14 -3 -23 -5 -10 -5 -23 0 -31 5 -9 5 -20 -2 -27
-8 -11 -7 -12 7 -7 14 6 16 4 10 -6 -5 -8 -4 -11 2 -7 6 4 8 19 6 34 -2 16 -4
38 -4 51 1 12 -4 22 -11 22 -6 0 -8 -3 -5 -6z"/>
<path d="M1190 360 c0 -5 5 -10 10 -10 6 0 10 5 10 10 0 6 -4 10 -10 10 -5 0
-10 -4 -10 -10z"/>
<path d="M1469 334 c-6 -7 -17 -10 -25 -7 -17 6 -19 -13 -2 -23 7 -5 8 -3 3 7
-8 12 -6 12 8 0 18 -15 23 -26 7 -16 -6 4 -7 -1 -4 -12 4 -13 3 -15 -4 -5 -12
17 -23 17 -33 1 -4 -8 -3 -20 4 -28 9 -11 9 -13 0 -8 -6 4 -15 2 -19 -4 -5 -8
-9 -8 -14 1 -5 9 -9 9 -14 1 -4 -6 -2 -11 4 -11 6 0 8 -5 4 -11 -5 -8 -9 -8
-14 1 -5 9 -9 9 -14 1 -4 -6 -2 -11 3 -11 6 0 11 -5 11 -11 0 -8 -6 -7 -17 2
-14 12 -16 12 -8 0 5 -10 4 -12 -4 -7 -9 6 -9 11 0 22 14 17 -2 19 -19 2 -9
-9 -15 -9 -24 0 -9 9 -9 12 1 12 7 0 9 5 6 10 -4 6 -10 8 -15 5 -5 -3 -11 -1
-15 5 -4 6 -11 8 -16 5 -5 -4 -9 -2 -9 3 0 6 7 13 16 16 8 3 12 2 9 -4 -3 -5
3 -7 14 -5 11 2 25 -3 31 -11 7 -7 16 -11 21 -8 5 3 9 0 9 -6 0 -6 5 -8 11 -4
6 3 7 9 3 13 -12 8 -17 34 -5 27 5 -4 12 0 15 6 3 7 4 4 1 -7 -4 -16 0 -21 16
-22 17 -2 18 1 8 13 -6 8 -9 17 -5 21 3 3 6 0 6 -7 0 -9 5 -7 14 5 8 11 11 25
9 33 -4 9 -9 8 -19 -7 -9 -12 -22 -18 -34 -16 -11 2 -20 0 -20 -5 0 -4 -8 -7
-17 -5 -10 1 -24 -2 -30 -8 -9 -6 -13 -6 -13 1 0 6 -9 10 -20 9 -11 -1 -20 -4
-20 -7 0 -3 -7 -15 -15 -26 -15 -19 -15 -19 -8 1 6 18 5 18 -10 6 -14 -11 -20
-11 -32 -1 -22 18 -18 -3 5 -28 l20 -21 -29 4 c-23 3 -28 0 -24 -11 4 -10 9
-11 17 -4 9 6 16 6 24 -2 12 -12 17 -2 13 29 -2 14 16 12 47 -5 12 -7 22 -9
22 -5 0 4 6 1 13 -7 11 -14 18 -17 59 -25 10 -2 23 5 29 16 6 12 17 18 25 15
8 -3 13 -2 10 3 -3 5 1 11 9 15 8 3 12 12 9 21 -10 24 9 18 38 -14 20 -21 23
-28 11 -27 -9 0 -18 -6 -20 -14 -4 -13 -3 -13 6 0 9 13 12 13 20 1 7 -11 10
-9 16 8 3 12 10 19 15 16 5 -3 11 -1 15 5 4 6 12 7 18 3 8 -5 8 -2 0 9 -7 8
-10 17 -7 21 3 3 -4 8 -17 12 -17 6 -19 9 -8 16 11 7 11 9 1 9 -7 0 -11 4 -7
9 3 5 1 12 -5 16 -6 4 -8 10 -6 14 8 13 -24 8 -35 -5z m36 -35 c-2 -11 2 -22
11 -26 12 -4 12 -8 -3 -19 -17 -13 -17 -14 0 -8 9 3 17 2 17 -4 0 -13 -18 -10
-48 6 -18 10 -20 17 -12 32 7 13 7 21 0 25 -8 5 -7 11 1 21 16 19 39 0 34 -27z
m-160 -31 c4 -3 2 -9 -3 -12 -5 -3 -15 1 -21 8 -10 11 -9 14 3 12 9 -1 18 -5
21 -8z m-71 -35 c4 -11 1 -11 -14 -3 -24 13 -25 17 -5 17 8 0 16 -6 19 -14z"/>
<path d="M1477 323 c-4 -3 -3 -11 0 -17 12 -19 12 -36 0 -36 -7 0 -6 -4 3 -9
18 -12 34 -3 22 12 -5 7 -8 20 -7 29 3 19 -8 32 -18 21z"/>
<path d="M1198 333 c8 -3 4 -11 -13 -25 -14 -11 -29 -18 -32 -14 -3 3 -21 -8
-40 -24 -18 -17 -38 -30 -44 -30 -6 0 -6 -7 1 -19 5 -11 18 -18 27 -16 10 1
24 -2 31 -8 7 -5 16 -7 19 -3 10 10 -19 27 -34 21 -7 -2 -13 0 -13 6 0 6 -6 7
-12 3 -7 -4 -5 2 5 14 23 25 60 27 47 2 -7 -13 -4 -16 10 -15 28 2 33 10 15
25 -17 14 -21 35 -5 25 6 -3 10 -1 10 6 0 7 6 4 14 -6 11 -15 17 -17 28 -7 8
6 18 9 21 5 4 -3 7 -1 7 5 0 6 -5 14 -10 17 -8 5 -7 11 1 21 6 8 10 14 8 15
-26 5 -51 7 -41 2z m22 -18 c-6 -8 -9 -19 -6 -24 4 -5 1 -13 -5 -17 -6 -3 -15
0 -20 7 -6 10 -1 20 14 31 27 22 33 23 17 3z"/>
<path d="M1309 247 c6 -8 7 -18 3 -22 -4 -5 -1 -5 6 -1 10 6 10 11 1 22 -6 8
-14 14 -16 14 -3 0 0 -6 6 -13z"/>
<path d="M1105 240 c-3 -5 1 -10 9 -10 9 0 16 5 16 10 0 6 -4 10 -9 10 -6 0
-13 -4 -16 -10z"/>
<path d="M310 1169 c0 -5 5 -7 10 -4 6 3 10 1 10 -5 0 -6 5 -8 11 -4 8 4 7 9
-2 15 -19 12 -29 11 -29 -2z"/>
<path d="M1851 594 c0 -11 3 -14 6 -6 3 7 2 16 -1 19 -3 4 -6 -2 -5 -13z"/>
<path d="M794 495 c1 -8 8 -21 16 -28 12 -10 12 -9 2 4 -6 9 -9 18 -6 21 3 3
1 9 -4 12 -6 3 -9 -1 -8 -9z"/>
<path d="M873 442 c-5 -11 -7 -11 -14 0 -6 9 -9 9 -9 1 0 -15 19 -27 47 -29
18 -1 20 2 12 12 -6 7 -8 17 -5 22 3 5 -2 9 -10 9 -9 0 -18 -7 -21 -15z m20
-5 c3 -8 -1 -14 -8 -14 -7 0 -11 6 -8 14 3 7 6 13 8 13 2 0 5 -6 8 -13z"/>
<path d="M862 503 c6 -7 16 -13 22 -13 6 0 5 4 -3 9 -11 7 -11 9 0 14 8 3 4 4
-8 4 -17 -1 -19 -4 -11 -14z"/>
<path d="M936 468 c3 -4 11 -5 19 -1 21 7 19 12 -4 10 -11 0 -18 -5 -15 -9z"/>
</g>
</svg>
